<?xml version="1.0" standalone="no"?>
<!DOCTYPE svg PUBLIC "-//W3C//DTD SVG 20010904//EN"
 "http://www.w3.org/TR/2001/REC-SVG-20010904/DTD/svg10.dtd">
<svg version="1.0" xmlns="http://www.w3.org/2000/svg"
 width="800.000000pt" height="800.000000pt" viewBox="0 80 800.000000 800.000000"
 preserveAspectRatio="xMidYMid meet">
<metadata>
Created by potrace 1.16, written by Peter Selinger 2001-2019
</metadata>
<g transform="translate(0.000000,880.000000) scale(0.100000,-0.100000)"
fill="#000000" stroke="none">
<path d="M6050 7351 c-8 -6 -29 -11 -47 -11 -33 0 -55 -23 -46 -48 10 -27 52
-32 145 -20 101 13 80 25 188 -101 19 -23 40 -41 47 -41 19 0 33 -33 22 -53
-14 -24 -28 -21 -51 8 -36 47 -88 10 -88 -63 0 -49 -55 -150 -100 -184 -16
-11 -36 -39 -45 -61 -9 -23 -27 -53 -40 -69 -13 -15 -26 -41 -30 -58 -4 -16
-29 -53 -56 -82 -28 -29 -59 -71 -71 -93 -11 -22 -29 -46 -39 -53 -10 -7 -23
-31 -29 -53 -8 -29 -29 -58 -71 -99 -32 -32 -59 -65 -59 -74 0 -10 -23 -42
-51 -71 -31 -33 -54 -68 -58 -87 -5 -22 -16 -37 -33 -46 -15 -7 -37 -31 -49
-52 -13 -22 -32 -46 -44 -54 -11 -7 -44 -49 -74 -92 -29 -44 -70 -91 -90 -105
-23 -16 -49 -51 -71 -93 -19 -37 -53 -84 -75 -104 -85 -76 -109 -132 -57 -132
39 0 63 20 106 88 21 32 52 66 69 76 18 9 52 44 76 77 24 33 68 81 97 106 30
26 54 53 54 61 0 7 27 41 61 75 33 34 74 76 90 92 20 21 29 40 29 62 0 27 7
37 38 58 20 14 48 32 62 42 51 34 110 98 120 129 6 17 35 55 65 83 30 28 55
56 55 62 0 7 17 31 38 55 55 63 77 94 102 144 12 25 39 66 60 91 21 25 45 62
54 83 8 20 31 56 50 79 23 28 38 59 42 87 4 25 15 56 26 69 10 13 18 29 18 36
0 7 16 33 36 56 54 65 40 180 -26 214 -17 9 -30 19 -30 23 -2 35 -28 43 -166
48 -87 3 -145 1 -154 -5z"/>
<path d="M4360 6684 c-6 -14 -10 -29 -10 -34 0 -5 -11 -17 -24 -25 -28 -19
-42 -51 -51 -120 -4 -27 -14 -66 -22 -85 -8 -19 -14 -55 -14 -80 0 -25 -6 -74
-14 -110 -8 -36 -19 -88 -25 -117 -9 -40 -9 -60 1 -86 11 -31 10 -39 -9 -69
-27 -44 -28 -84 -2 -123 14 -22 18 -39 14 -66 -4 -22 -1 -47 9 -65 8 -16 17
-45 21 -64 16 -88 50 -98 119 -35 42 39 47 48 47 87 0 36 5 48 30 70 36 32 37
38 5 76 -34 41 -47 80 -40 122 6 34 4 38 -34 63 -46 31 -51 52 -20 91 17 22
20 34 14 64 -14 70 -5 203 16 250 23 53 24 80 4 118 -27 53 -20 84 19 84 41 0
53 22 31 56 -21 32 -53 31 -65 -2z m-43 -734 c13 -24 23 -61 23 -82 0 -22 7
-46 15 -54 21 -22 19 -37 -10 -64 -66 -62 -134 82 -79 168 10 15 13 34 9 54
-10 44 14 32 42 -22z"/>
<path d="M6652 5588 c-18 -23 -23 -55 -10 -65 27 -22 86 -37 100 -26 20 16 89
6 121 -18 16 -11 35 -18 43 -15 18 7 54 -10 54 -25 0 -25 -109 -119 -138 -119
-16 0 -69 -7 -118 -16 -49 -8 -125 -15 -169 -15 -70 1 -82 -1 -96 -20 -29 -39
-61 -8 -71 67 -4 30 69 110 109 118 43 10 133 54 133 65 0 17 -39 23 -106 15
-64 -6 -69 -9 -142 -75 -52 -46 -85 -69 -106 -71 -41 -4 -44 -25 -5 -35 37
-10 40 -15 70 -100 24 -69 70 -91 106 -51 9 10 30 18 47 18 20 0 40 10 61 29
30 30 30 30 98 0 64 -29 70 -29 92 -15 16 10 47 16 89 16 75 0 104 17 115 70
8 43 33 50 72 21 29 -22 29 -22 60 11 74 80 79 146 14 164 -106 30 -206 33
-297 9 -21 -5 -28 -4 -28 8 0 45 -72 86 -98 55z"/>
<path d="M1570 5402 c0 -24 19 -42 46 -42 17 0 30 -13 50 -50 15 -27 31 -50
35 -50 10 0 116 -109 143 -146 10 -14 37 -34 60 -43 23 -10 58 -38 79 -64 32
-39 43 -46 86 -52 33 -4 60 -16 79 -33 33 -29 99 -72 111 -72 22 0 143 63 148
77 10 25 -35 100 -73 123 -19 11 -39 32 -45 47 -12 32 -26 43 -57 43 -33 0
-38 -27 -13 -61 23 -31 33 -63 35 -109 1 -22 -3 -25 -29 -22 -47 5 -74 27 -72
59 2 23 -2 27 -18 25 -46 -6 -62 -3 -99 19 -62 38 -148 125 -144 146 6 31 81
23 170 -20 68 -33 128 -47 128 -31 0 21 -41 69 -74 87 -21 12 -48 28 -60 34
-11 7 -34 13 -51 13 -16 0 -41 7 -55 15 -14 8 -37 14 -51 15 -15 0 -46 9 -70
19 -24 11 -74 25 -111 32 -52 9 -72 18 -83 36 -19 28 -65 32 -65 5z"/>
<path d="M4967 5288 c-25 -35 -57 -74 -72 -88 -32 -30 -58 -77 -50 -90 26 -43
198 135 193 199 -5 53 -21 48 -71 -21z"/>
<path d="M5981 5305 c-47 -33 -58 -36 -90 -29 -59 13 -142 9 -206 -10 -67 -20
-68 -20 -181 -16 -82 3 -82 3 -146 -48 -35 -28 -76 -56 -91 -63 -15 -7 -34
-23 -42 -35 -8 -13 -33 -33 -55 -44 -22 -11 -44 -29 -50 -39 -29 -55 11 -114
47 -70 30 37 77 80 103 94 14 7 43 30 65 50 62 57 115 84 160 83 22 0 81 7
130 17 50 10 128 18 175 19 47 1 103 7 125 13 156 44 191 38 160 -24 -20 -41
-30 -48 -96 -67 -69 -20 -92 -42 -64 -62 24 -18 46 -18 82 0 15 8 53 22 84 31
112 35 168 115 114 165 -14 13 -25 29 -25 36 0 16 -17 22 -87 29 -55 7 -60 5
-112 -30z"/>
<path d="M5845 5100 c-12 -4 -27 -15 -34 -24 -10 -12 -32 -16 -87 -16 -60 0
-75 -3 -83 -17 -9 -18 -108 -73 -130 -73 -6 0 -23 -7 -36 -16 -18 -12 -35 -14
-65 -9 -31 5 -47 3 -68 -11 -15 -10 -45 -21 -67 -24 -28 -3 -43 -12 -51 -29
-7 -13 -25 -34 -40 -46 -29 -23 -28 -55 1 -55 23 0 67 24 89 49 41 46 88 66
156 68 114 3 136 10 184 64 46 52 75 60 130 39 52 -19 105 0 126 47 21 47 11
67 -25 53z"/>
<path d="M4988 4876 c-31 -18 -48 -22 -91 -18 -45 4 -57 1 -82 -20 -46 -39
-70 -48 -120 -48 -26 0 -63 -9 -85 -20 -22 -11 -46 -20 -53 -20 -8 0 -26 -9
-40 -20 -16 -13 -40 -20 -68 -20 -33 0 -49 -6 -71 -27 -23 -22 -37 -27 -73
-25 -24 1 -60 -5 -79 -13 -19 -8 -55 -15 -79 -15 -35 0 -49 -6 -71 -29 -18
-19 -41 -30 -67 -34 -22 -3 -58 -17 -79 -30 -20 -14 -70 -35 -109 -47 -50 -16
-78 -31 -96 -52 -20 -23 -37 -31 -78 -37 -28 -4 -74 -19 -102 -33 -128 -68
-186 -89 -222 -79 -66 19 -87 -12 -48 -71 36 -55 88 -53 185 8 19 12 51 25 70
29 56 12 127 52 157 90 24 30 34 35 70 35 49 0 114 23 158 56 17 12 55 30 85
39 30 9 82 30 116 46 43 21 69 28 87 24 16 -4 42 1 72 14 26 12 98 30 159 40
61 11 125 27 143 36 17 9 60 22 96 29 112 24 227 67 227 85 0 22 56 60 94 66
86 13 117 40 84 73 -18 18 -49 14 -90 -12z"/>
<path d="M5073 4758 c-36 -52 -54 -101 -48 -136 4 -25 1 -43 -9 -57 -25 -35
-40 -5 -38 75 2 55 0 70 -12 70 -16 0 -26 -21 -26 -56 0 -14 -10 -38 -21 -54
-17 -22 -20 -36 -15 -65 6 -31 2 -45 -34 -101 -35 -56 -40 -71 -39 -117 1 -38
-4 -62 -20 -89 -20 -32 -21 -41 -11 -75 15 -49 -20 -180 -81 -309 -11 -23 -19
-62 -19 -89 0 -41 -5 -54 -30 -80 -31 -32 -31 -32 -10 -57 22 -28 26 -48 10
-48 -14 0 -50 -61 -50 -84 0 -11 7 -28 16 -37 13 -15 15 -24 6 -46 -10 -26
-30 -245 -37 -403 -2 -36 -8 -99 -14 -140 -10 -68 -9 -77 8 -100 32 -44 45
-32 51 45 3 39 9 76 13 82 5 8 2 22 -7 35 -20 28 -20 52 -1 68 15 12 18 42 16
152 -1 47 3 60 18 70 22 14 21 149 -1 195 -9 17 -7 37 5 80 9 32 21 83 28 113
13 63 52 130 75 130 9 0 27 10 39 23 13 12 29 27 37 33 8 6 20 45 27 85 8 41
21 85 31 99 9 14 27 51 39 82 24 60 20 58 113 73 44 7 62 33 53 76 -9 38 -41
37 -64 -3 -24 -40 -80 -82 -125 -93 -26 -6 -45 -18 -52 -33 -16 -32 -38 -54
-28 -29 4 10 1 36 -6 58 -11 33 -11 48 3 101 9 35 19 77 22 95 4 18 17 38 30
47 20 13 23 22 19 45 -6 29 18 91 36 91 5 0 14 -18 20 -41 14 -50 35 -46 35 7
1 43 12 70 44 98 13 12 21 31 21 52 0 19 9 57 20 86 27 71 26 88 -4 88 -13 0
-28 -6 -33 -12z"/>
<path d="M6020 4530 c-8 -5 -50 -10 -93 -10 -77 0 -77 0 -94 -35 -21 -43 -15
-49 34 -36 115 32 267 -15 278 -87 3 -20 13 -63 21 -95 9 -32 17 -114 18 -185
4 -145 19 -281 36 -311 6 -13 8 -45 4 -85 -7 -70 4 -90 36 -61 21 19 26 128 9
174 -6 15 -6 36 1 57 9 27 8 40 -9 77 -29 64 -38 149 -17 166 20 17 20 35 1
51 -10 9 -15 30 -14 69 2 157 -4 174 -96 259 -65 61 -86 71 -115 52z"/>
<path d="M5707 4489 c-34 -20 -121 -38 -139 -28 -28 15 -50 10 -77 -15 -73
-68 -182 -106 -235 -81 -44 21 -52 16 -59 -36 -4 -34 -1 -48 17 -73 13 -17 29
-48 36 -69 15 -47 31 -43 47 12 17 59 25 67 94 90 47 16 66 18 89 9 25 -8 35
-7 58 8 16 12 45 19 72 19 44 0 46 1 70 48 17 34 35 53 58 62 37 16 39 25 14
48 -21 20 -21 20 -45 6z"/>
<path d="M5915 3952 c-9 -108 -2 -231 16 -279 8 -24 8 -41 0 -64 -17 -50 -13
-85 15 -118 26 -31 26 -31 10 -94 -29 -114 -5 -240 37 -198 13 13 20 240 7
256 -4 6 -7 61 -8 123 0 61 -5 133 -10 160 -6 26 -13 97 -16 158 -6 119 -10
140 -31 148 -10 4 -15 -17 -20 -92z"/>
<path d="M5445 3740 c-16 -11 -46 -20 -67 -20 -20 0 -69 -11 -110 -25 -40 -14
-116 -30 -168 -35 -113 -12 -145 -30 -145 -80 0 -29 -6 -36 -40 -54 -30 -16
-41 -28 -43 -49 -4 -37 24 -36 71 2 32 25 42 28 86 23 39 -3 57 0 78 14 46 31
134 55 178 48 35 -5 43 -2 69 25 17 17 36 31 44 31 8 0 33 8 56 19 23 10 53
24 69 30 18 7 27 18 27 33 -1 56 -51 74 -105 38z"/>
<path d="M2135 3600 c-3 -6 3 -23 14 -39 12 -16 21 -35 21 -43 0 -28 33 -59
106 -99 41 -23 82 -53 91 -66 9 -14 27 -29 40 -34 13 -5 32 -22 41 -39 9 -16
36 -39 59 -50 62 -29 135 -152 148 -250 4 -30 14 -66 23 -80 12 -18 17 -55 19
-138 1 -62 7 -121 12 -131 6 -10 13 -81 17 -157 4 -77 12 -150 19 -164 7 -14
15 -46 18 -73 8 -56 35 -113 71 -146 14 -13 31 -40 37 -60 15 -46 23 -56 86
-103 61 -45 70 -46 85 -13 18 40 89 45 119 9 7 -8 30 -14 59 -14 40 0 50 -4
64 -25 9 -14 29 -28 44 -31 28 -7 170 -142 192 -183 14 -27 2 -41 -37 -41 -31
0 -29 -24 3 -49 36 -28 154 -29 179 -1 23 26 12 66 -23 84 -15 8 -63 53 -107
101 -149 163 -139 155 -182 155 -21 0 -55 9 -76 20 -20 11 -43 20 -50 20 -7 0
-31 13 -53 30 -21 16 -47 30 -56 30 -17 0 -67 25 -140 69 -46 28 -94 87 -141
174 -47 87 -55 138 -32 211 12 38 16 71 12 101 -5 33 -1 57 14 91 21 51 15
196 -12 246 -6 12 -12 63 -13 113 -1 91 -1 91 -61 161 -34 38 -74 86 -89 107
-16 21 -50 54 -76 73 -26 19 -53 48 -60 64 -14 33 -36 38 -66 15 -40 -30 -100
-5 -126 52 -4 10 -85 73 -93 73 -4 0 -18 9 -32 20 -28 22 -58 26 -68 10z"/>
<path d="M6220 3563 c1 -4 9 -33 20 -63 11 -30 20 -73 20 -95 0 -22 4 -46 9
-54 6 -9 4 -31 -4 -57 -12 -40 -11 -46 7 -69 15 -19 18 -34 14 -59 -4 -20 0
-47 9 -70 13 -30 14 -44 4 -77 -11 -33 -10 -45 4 -75 9 -19 17 -47 17 -62 0
-16 5 -33 12 -40 7 -7 15 -61 20 -124 19 -274 28 -365 38 -398 12 -37 42 -258
40 -300 -5 -168 -15 -219 -49 -250 -16 -14 -34 -35 -40 -48 -13 -24 -37 -36
-114 -57 -58 -15 -63 -9 -53 60 5 37 0 57 -28 119 -19 41 -37 92 -41 115 -4
23 -17 54 -29 69 -20 23 -22 35 -18 89 6 79 -4 133 -24 133 -12 0 -14 -7 -9
-29 4 -18 0 -41 -11 -64 -16 -34 -16 -37 5 -79 13 -28 21 -64 21 -96 0 -38 8
-67 27 -104 22 -43 28 -67 29 -131 1 -65 5 -82 23 -101 12 -13 21 -35 21 -53
0 -74 51 -79 93 -10 14 21 25 27 53 27 38 0 144 92 144 125 0 8 13 21 29 29
50 26 76 129 41 161 -37 33 -45 86 -21 132 20 41 20 41 1 109 -11 38 -20 95
-20 127 0 65 -25 187 -47 230 -9 18 -11 40 -7 63 4 22 2 45 -7 60 -11 21 -10
33 6 79 23 68 11 123 -34 155 -29 20 -29 21 -24 101 5 73 -3 169 -26 304 -7
37 -5 59 5 84 20 48 -4 130 -49 163 -44 34 -57 41 -57 31z"/>
<path d="M4820 3251 c0 -11 16 -50 35 -87 19 -37 35 -79 35 -95 0 -19 16 -47
50 -88 28 -33 50 -62 50 -64 0 -1 -31 -29 -70 -61 -75 -63 -79 -76 -22 -76 45
0 76 20 98 61 14 28 18 30 53 24 38 -6 147 23 228 61 29 14 41 15 66 6 26 -10
33 -8 59 13 16 14 33 25 38 25 5 0 22 12 39 26 27 23 37 25 79 19 72 -10 123
37 92 85 -6 9 -34 17 -77 22 -37 3 -89 10 -115 13 -73 11 -113 0 -136 -39 -25
-42 -128 -96 -185 -96 -27 0 -48 -8 -69 -25 -54 -45 -59 -41 -126 105 -17 36
-33 84 -35 108 -6 51 -30 82 -64 82 -16 0 -23 -6 -23 -19z"/>
<path d="M5950 3136 c-6 -8 -10 -32 -9 -53 8 -127 1 -171 -37 -208 -39 -39
-33 -64 18 -81 32 -10 38 -44 22 -125 -8 -41 -12 -87 -9 -104 3 -17 -2 -42
-10 -59 -20 -37 -18 -63 5 -106 19 -35 19 -35 35 5 12 27 15 53 11 86 -5 34
-1 57 14 92 20 46 20 46 -1 144 -20 93 -20 101 -5 164 20 84 20 119 0 148 -13
18 -14 28 -5 48 20 43 -2 80 -29 49z"/>
<path d="M4767 2695 c-19 -40 -33 -43 -87 -15 -67 34 -105 -10 -82 -95 7 -26
8 -55 2 -79 -12 -55 28 -161 60 -161 24 0 36 14 44 57 3 14 17 40 31 56 14 17
25 36 25 43 0 8 11 37 25 64 24 49 31 98 19 143 -9 31 -18 28 -37 -13z"/>
<path d="M5580 2361 c-27 -38 -52 -46 -89 -27 -43 23 -48 21 -71 -23 -11 -22
-25 -43 -31 -47 -11 -7 -166 -23 -265 -28 -121 -6 -210 -75 -138 -108 22 -10
32 -8 70 12 44 25 44 25 79 5 36 -19 36 -19 91 8 62 31 123 35 178 12 41 -17
56 -12 95 29 27 29 56 33 85 11 27 -20 46 -19 73 6 19 18 33 22 91 20 58 -1
71 1 88 20 10 11 31 27 45 35 35 18 44 51 17 65 -12 6 -66 12 -122 13 -56 1
-111 7 -123 14 -34 18 -50 15 -73 -17z"/>
<path d="M3032 1818 c-7 -7 -12 -22 -12 -34 0 -35 -19 -41 -130 -43 -105 -1
-106 -1 -200 -48 -52 -26 -115 -50 -140 -53 -49 -5 -50 -9 -34 -87 4 -21 0
-47 -10 -74 -36 -88 -5 -133 93 -136 36 -2 98 -4 137 -5 41 -2 78 -9 87 -17
11 -9 28 -11 49 -6 83 17 124 16 174 -3 52 -21 99 -19 168 8 23 8 34 7 52 -5
33 -22 53 -19 66 10 12 27 28 31 58 15 11 -6 36 -6 64 -1 39 7 52 5 91 -15 48
-26 101 -30 151 -12 25 9 39 9 56 1 42 -20 165 -53 201 -53 23 0 46 -10 72
-30 35 -28 38 -29 66 -14 31 16 45 12 100 -28 23 -17 30 -18 72 -7 40 11 48
11 65 -4 23 -21 50 -22 73 -1 16 15 22 14 72 -11 51 -24 58 -25 96 -14 47 14
49 19 20 45 -16 15 -39 19 -108 21 -47 1 -107 7 -131 13 -25 7 -78 16 -117 21
-40 5 -105 18 -145 30 -40 11 -86 24 -103 29 -16 4 -63 17 -103 30 -46 14 -86
20 -108 17 -36 -6 -58 9 -27 19 10 3 32 13 48 21 23 11 40 12 71 5 23 -5 48
-6 56 -1 17 9 97 11 193 4 129 -9 193 -4 460 34 175 26 157 25 218 16 52 -8
58 0 35 50 -13 29 -38 32 -73 9 -20 -13 -33 -14 -64 -7 -25 7 -45 7 -56 1 -55
-31 -369 -55 -575 -44 -41 2 -90 -1 -108 -7 -25 -9 -40 -8 -65 2 -62 26 -94
25 -142 -4 -40 -23 -50 -25 -76 -16 -26 9 -37 7 -70 -12 -32 -18 -41 -19 -48
-8 -13 20 -84 28 -196 24 -172 -8 -327 -6 -405 5 -91 12 -134 6 -125 -17 13
-34 10 -36 -55 -35 -95 2 -185 34 -184 65 5 82 59 155 121 161 26 3 55 9 64
12 13 6 16 2 12 -17 -3 -14 0 -28 6 -32 13 -7 92 35 131 70 32 29 63 36 103
24 40 -12 136 7 144 28 11 30 -23 48 -67 36 -47 -12 -59 -3 -40 32 21 38 -1
70 -28 43z"/>
<path d="M3220 1711 c0 -19 18 -31 49 -31 10 0 28 -12 42 -26 34 -37 56 -46
90 -39 58 13 28 48 -50 61 -29 5 -47 14 -58 30 -20 31 -73 34 -73 5z"/>
<path d="M7067 1531 c-31 -36 -70 -40 -119 -15 -39 20 -87 12 -117 -20 -35
-37 8 -64 73 -47 25 6 66 11 93 11 26 0 57 7 67 15 13 10 32 13 57 9 52 -9 89
2 89 25 0 26 -18 38 -70 46 -42 6 -47 4 -73 -24z"/>
<path d="M7338 1529 c-45 -45 -28 -51 172 -62 32 -2 71 -12 95 -25 49 -27 61
-27 75 -2 19 36 -2 56 -65 63 -31 3 -62 13 -71 22 -11 11 -25 14 -38 10 -54
-17 -65 -16 -85 4 -29 29 -47 26 -83 -10z"/>
<path d="M5080 1505 c-44 -28 -64 -35 -106 -35 -59 0 -77 -19 -41 -45 32 -23
65 -18 142 18 76 37 100 58 91 82 -8 22 -25 18 -86 -20z"/>
<path d="M5452 1490 c-12 -5 -69 -8 -125 -6 -111 4 -131 -1 -125 -30 3 -13 11
-18 28 -16 48 4 91 2 103 -5 7 -4 64 -9 127 -11 197 -5 293 -9 340 -16 50 -7
87 11 77 39 -5 12 -15 14 -46 9 -27 -4 -54 -1 -80 9 -46 19 -123 11 -161 -16
-23 -16 -25 -16 -56 18 -33 36 -44 40 -82 25z"/>
<path d="M6675 1484 c-89 -34 -155 -68 -155 -81 0 -27 53 -27 103 1 38 21 56
25 83 20 60 -11 102 46 48 66 -31 12 -30 12 -79 -6z"/>
<path d="M5935 1469 c-9 -26 3 -89 16 -89 16 0 79 29 79 36 0 4 -11 22 -26 41
-28 37 -59 43 -69 12z"/>
<path d="M7837 1463 c-51 -4 -66 -19 -49 -50 10 -17 171 -31 194 -17 11 7 -70
75 -85 72 -7 -1 -34 -3 -60 -5z"/>
<path d="M6122 1425 c-52 -23 2 -65 82 -65 49 0 52 13 11 49 -40 35 -47 36
-93 16z"/>
<path d="M6357 1412 c-34 -38 -25 -45 53 -42 57 2 59 5 30 35 -28 30 -60 32
-83 7z"/>
<path d="M0 1363 c1 -48 40 -76 137 -98 74 -17 89 -11 79 29 -5 21 -12 26 -39
26 -20 0 -56 15 -97 40 -79 49 -80 49 -80 3z"/>
<path d="M249 1239 c-17 -10 0 -49 26 -59 14 -5 33 -27 44 -48 11 -21 27 -44
35 -51 22 -18 20 -64 -2 -84 -23 -21 -75 -22 -92 -2 -17 21 -37 19 -43 -5 -6
-24 -38 -26 -70 -6 -18 12 -26 12 -45 2 -24 -13 -24 -13 13 -44 42 -37 63 -40
98 -12 32 25 32 25 91 -6 61 -32 81 -21 133 72 38 68 36 84 -16 134 -20 20
-50 52 -68 72 -32 35 -80 52 -104 37z"/>
<path d="M7880 1180 c-8 -5 -29 -10 -46 -10 -41 0 -80 -30 -71 -55 11 -27 169
10 182 43 11 30 -31 44 -65 22z"/>
<path d="M4642 1138 c-21 -27 4 -58 46 -58 22 0 56 -7 75 -15 20 -8 48 -15 62
-15 14 0 51 -9 82 -20 32 -11 69 -20 84 -20 15 0 41 -11 57 -25 57 -48 160
-17 110 33 -7 7 -31 12 -54 12 -23 0 -57 7 -76 15 -21 8 -50 12 -71 8 -28 -4
-39 -1 -58 18 -15 15 -41 25 -76 30 -29 4 -65 17 -79 28 -30 23 -86 28 -102 9z"/>
<path d="M7664 1110 c-12 -5 -25 -14 -29 -20 -8 -14 -108 -60 -129 -60 -14 0
-87 -33 -161 -74 -16 -9 -39 -16 -51 -16 -11 0 -29 -9 -39 -20 -10 -11 -52
-39 -92 -61 -117 -64 -163 -113 -147 -154 17 -44 72 -6 108 73 18 40 37 52 84
52 12 0 39 9 59 20 21 11 43 20 49 20 6 0 24 10 40 22 33 26 78 53 114 69 14
6 52 24 85 40 33 16 72 29 87 29 35 0 90 66 67 81 -17 10 -18 10 -45 -1z"/>
<path d="M5210 962 c0 -20 39 -42 73 -42 20 0 38 -4 41 -9 3 -5 27 -14 53 -21
27 -6 65 -21 85 -32 31 -18 40 -19 53 -8 32 26 8 49 -52 50 -12 0 -30 10 -40
23 -11 14 -26 21 -41 19 -12 -2 -36 4 -54 12 -33 17 -118 22 -118 8z"/>
<path d="M5718 853 c-22 -6 -25 -61 -3 -69 20 -8 85 15 92 32 12 33 -33 52
-89 37z"/>
<path d="M5860 772 c0 -55 63 -80 108 -43 42 36 16 61 -62 61 -37 0 -46 -3
-46 -18z"/>
<path d="M6053 763 c-43 -17 5 -53 70 -53 27 0 49 -6 57 -15 27 -33 101 1 87
40 -7 17 -17 18 -71 5 -33 -7 -44 -5 -64 11 -24 18 -53 23 -79 12z"/>
<path d="M6340 732 c-37 -30 -14 -53 44 -46 31 5 47 2 58 -10 25 -24 60 -19
91 13 35 38 36 37 -30 44 -32 4 -76 9 -98 13 -32 5 -46 2 -65 -14z"/>
<path d="M6645 702 c-33 -6 -40 -20 -20 -42 32 -35 185 -5 172 33 -4 11 -104
17 -152 9z"/>
</g>
</svg>
